# xmcd
#
# Track frame offsets:
#	150
#	16175
#	29380
#	42265
#	54540
#	66765
#	78259
#	88424
#	101563
#	112784
#	123747
#	137149
#	150072
#	160936
#	173808
#	187910
#	202237
#	215447
#	229087
#	241467
#	255015
#	267413
#	278247
#	288537
#	301372
#
# Disc length: 4147 seconds
#
# Revision: 2
# Processed by: cddbd v1.5.2PL0 Copyright (c) Steve Scherf et al.
# Submitted via: audiograbber 1.83.01
#
DISCID=59103119
DTITLE=Various Artist - Rolling Stones Beginnings- From Little Blue Boys To Pl
DTITLE=aying Chess
DYEAR=2009
DGENRE=Blues
TTITLE0=Leroy Carr - Blues Before Sunrise
TTITLE1=Big Joe Turner - Wee Baby Blues
TTITLE2=Walter Brown - Confessin' The Blues
TTITLE3=Muddy Waters - I Can't Be Satisfied
TTITLE4=Jimmy Reed - Honest I Do
TTITLE5=Muddy Waters - I Want To Be Loved
TTITLE6=Jimmy Reed - Ain't That Loving You Baby
TTITLE7=Muddy Waters - I Just Want To Make Love To You
TTITLE8=Bo Diddley - Diddley Daddy
TTITLE9=Chuck Berry - Roll Over Beethoven
TTITLE10=Boogaloo and his Galant Crew - Cops& Robbers
TTITLE11=Bo Diddley - Pretty Thing
TTITLE12=The Crickets - Not Fade Away
TTITLE13=Hank Snow - I'm Movin' On
TTITLE14=Nat King Cole - (Get Your Kicks On) Route 66
TTITLE15=Will Bradley - Down The Road Apiece
TTITLE16=Tampa Red - Don't You Lie To Me
TTITLE17=Big Bill Broonzy - Tell Me Baby
TTITLE18=Jazz Gillum - Key To The Highway
TTITLE19=Slim Harpo - I'm A King Bee
TTITLE20=Chuck Berry - Around And Around
TTITLE21=Bo Diddley - Mona
TTITLE22=Dale Hawkins - Susie Q
TTITLE23=Chuck Berry - Carol
TTITLE24=Gene Allison - You Can Make It If You Try
EXTD=
EXTT0=
EXTT1=
EXTT2=
EXTT3=
EXTT4=
EXTT5=
EXTT6=
EXTT7=
EXTT8=
EXTT9=
EXTT10=
EXTT11=
EXTT12=
EXTT13=
EXTT14=
EXTT15=
EXTT16=
EXTT17=
EXTT18=
EXTT19=
EXTT20=
EXTT21=
EXTT22=
EXTT23=
EXTT24=
PLAYORDER=
